<svg id="Capa_1" enable-background="new 0 0 512 512" height="512" viewBox="0 0 512 512" width="512" xmlns="http://www.w3.org/2000/svg"><g><g><path d="m177.007 229.881-24.822 16.848 54.577 80.412-164.099-96.282-29.595 17.418 232.922 136.662 10.435-.017v-38.028z" fill="#9ea2e3"/><path d="m469.365 230.875-163.706 96.462 54.134-80.729-24.917-16.708-78.451 116.993c-6.137 11.933-6.137 26.095 0 38.028l10.633-.018 231.871-136.628z" fill="#d4d4ff"/></g><g><path d="m7.522 240.053c-.48 7.353 6.959 12.657 13.78 9.867 41.366-16.919 87.463-17.925 129.397-3.035 7.092 2.519 14.661 3.828 22.321 3.831l82.98-82.98v-160.236c-131.995 0-240.004 102.7-248.478 232.553z" fill="#0caf7b"/><path d="m504.478 240.05c.48 7.353-6.959 12.657-13.78 9.867-41.366-16.919-87.463-17.925-129.397-3.035-7.092 2.519-14.661 3.828-22.321 3.831l-82.98-82.98v-160.236c131.995 0 240.004 102.701 248.478 232.553z" fill="#70dcba"/><path d="m173.02 250.715c7.447.003 14.981-1.228 22.249-3.807 39.248-13.925 82.214-13.925 121.462 0 7.006 2.485 14.554 3.803 22.249 3.805-1.027-134.847-37.784-243.213-82.98-243.213s-81.953 108.368-82.98 243.215z" fill="#30cd9c"/></g><g fill="#ff8e9e"><ellipse cx="151.978" cy="95.704" rx="25" ry="18.788"/><ellipse cx="360.022" cy="95.704" rx="25" ry="18.788"/></g><g><path d="m325.968 393.389-28.301-28.841c-.552-.03-1.107-.048-1.667-.048h-80c-.56 0-1.115.018-1.667.048l-28.285 28.285c-.03.552-.048 1.107-.048 1.667v80c0 .56.018 1.115.048 1.667l28.285 28.285c.552.03 1.107.049 1.667.049h80c.56 0 1.115-.019 1.667-.049l28.285-28.285c.03-.552.048-1.107.048-1.667l-.032-81.111c0-.56.03.552 0 0z" fill="#30cd9c"/><path d="m214.334 364.548c-15.241.835-27.45 13.044-28.285 28.285l111.618 111.618c15.241-.834 27.45-13.043 28.285-28.285-3.44-3.439-107.605-107.605-111.618-111.618z" fill="#18c08b"/><path d="m297.667 364.548c15.241.835 27.466 13.599 28.301 28.841-79.113 79.113-63.096 62.524-111.634 111.062-15.241-.834-27.45-13.043-28.285-28.285z" fill="#70dcba"/></g><g><path d="m511.962 239.562c-4.235-64.898-32.74-125.253-80.265-169.946-47.737-44.894-110.134-69.616-175.697-69.616-62.545 0-122.791 22.765-169.642 64.102-3.106 2.74-3.402 7.48-.662 10.586 1.482 1.681 3.55 2.538 5.627 2.538 1.763 0 3.533-.618 4.959-1.876 35.559-31.374 79.317-51.374 125.796-57.953-1.286 1.406-2.562 2.88-3.823 4.456-10.311 12.883-19.532 31.142-27.409 54.27-15.196 44.62-24.088 103.533-25.221 166.631-4.237-.528-8.392-1.507-12.417-2.936-20.354-7.228-41.632-10.892-63.241-10.892-24.65 0-48.708 4.728-71.506 14.053-.323.132-.636.196-.957.196-1.21 0-2.505-.984-2.505-2.449 0-.062.002-.125.006-.185 3.53-54.1 24.508-104.13 60.663-144.684 2.756-3.092 2.484-7.833-.607-10.59-3.095-2.757-7.832-2.481-10.59.607-37.854 42.46-60.737 97.041-64.435 153.693-.024.391-.036.778-.036 1.159 0 8.666 6.378 15.857 14.697 17.203l180.057 105.645c-9.291 6.379-15.537 16.838-16.193 28.836-.039.691-.061 1.389-.061 2.091v80c0 .702.021 1.399.06 2.076 1.089 19.904 17.486 35.423 37.44 35.423h80c19.977 0 36.353-15.543 37.439-35.409.039-.691.061-1.389.061-2.094l-.01-25.74c-.002-4.142-3.358-7.497-7.5-7.497-.001 0-.002 0-.003 0-4.142.002-7.499 3.36-7.497 7.503l.003 9.338-23.344-23.343c6.885-6.86 14.611-14.569 23.324-23.275l.003 7.28c.002 4.142 3.358 7.497 7.5 7.497h.003c4.143-.002 7.499-3.36 7.497-7.503l-.01-25.189c.002-.129.012-.255.009-.387-.009-.314-.036-.619-.077-.916-.857-11.591-7.033-21.891-15.999-28.32l179.902-106.005c2.633-.43 5.176-1.46 7.433-3.084 4.919-3.543 7.623-9.26 7.228-15.294zm-255.962-224.562c34.904 0 72.923 91.145 75.378 227.73-4.147-.53-8.209-1.497-12.139-2.891-40.781-14.469-85.699-14.469-126.479 0-3.938 1.397-7.998 2.364-12.139 2.895 2.455-136.587 40.475-227.734 75.379-227.734zm54.545 237.719-54.153 80.769-54.84-80.799c35.299-11.611 73.698-11.601 108.993.03zm-220.577-8.793c19.818 0 39.332 3.35 58.004 9.952l33.919 49.975-101.66-59.647c3.234-.18 6.479-.28 9.737-.28zm121.661 128.525 33.764 33.764-17.678 17.678-33.765-33.765c1.75-8.936 8.736-15.923 17.679-17.677zm20.764-.451h47.215l-23.608 23.607zm-38.893 38.893 23.607 23.607-23.607 23.607zm38.908 86.107c10.592-10.563 17.209-17.115 23.686-23.514l23.514 23.514zm85.642-18.128c-1.75 8.938-8.739 15.927-17.677 17.678l-33.607-33.607c4.802-4.749 10.381-10.274 17.752-17.603zm.019-88.192c-15.532 15.529-28.258 28.23-38.828 38.752-13.335 13.273-21.334 21.182-28.385 28.145l-1.672 1.651c-9.679 9.558-18.101 17.876-37.556 37.323-8.936-1.75-15.923-8.735-17.678-17.679l106.406-106.406c8.836 1.816 15.946 9.123 17.713 18.214zm-18.704-33.518c-.424-.039-.848-.078-1.275-.102-.692-.039-1.388-.061-2.09-.061h-80c-.702 0-1.397.021-2.076.06-.187.01-.371.031-.557.043l-177.944-104.404c6.713-2.222 13.528-4.025 20.429-5.406l147.114 86.317c1.184.694 2.493 1.031 3.793 1.031 2.021 0 4.019-.815 5.478-2.374 2.396-2.559 2.7-6.437.731-9.338l-44.006-64.836c1.347.073 2.698.123 4.054.124h.003.013.014c4.493 0 8.938-.412 13.307-1.207l57.626 84.902c2.796 4.12 7.431 6.575 12.408 6.575h.042c4.992-.014 9.632-2.497 12.412-6.644l56.879-84.823c4.348.785 8.777 1.192 13.258 1.193h.002s.002 0 .003 0c1.366 0 2.725-.051 4.082-.125l-43.635 65.073c-1.949 2.907-1.628 6.777.774 9.323 1.457 1.545 3.445 2.354 5.458 2.354 1.304 0 2.618-.34 3.805-1.038l146.77-86.484c6.874 1.381 13.684 3.173 20.392 5.394zm64.563-103.253c22.027-7.803 45.149-11.022 68.049-9.709l-101.739 59.949zm132.043-11.228c-.427.308-1.309.756-2.434.295-43.047-17.607-90.902-18.729-134.746-3.161-4.024 1.429-8.179 2.408-12.417 2.936-1.133-63.098-10.026-122.01-25.222-166.629-7.876-23.127-17.098-41.386-27.409-54.269-1.261-1.576-2.537-3.05-3.824-4.457 111.347 15.794 199.569 108.132 207.074 223.143.076 1.168-.608 1.844-1.022 2.142z"/><path d="m179.5 79.917v-10c0-4.142-3.358-7.5-7.5-7.5s-7.5 3.358-7.5 7.5v10c0 4.142 3.358 7.5 7.5 7.5s7.5-3.358 7.5-7.5z"/><path d="m340 87.417c4.142 0 7.5-3.358 7.5-7.5v-10c0-4.142-3.358-7.5-7.5-7.5s-7.5 3.358-7.5 7.5v10c0 4.142 3.358 7.5 7.5 7.5z"/><path d="m256.5 100.417c9.687 0 18.623-5.599 22.766-14.265 1.787-3.737.206-8.215-3.531-10.001-3.737-1.789-8.215-.206-10.001 3.531-1.666 3.484-5.291 5.735-9.234 5.735s-7.568-2.251-9.234-5.735c-1.787-3.737-6.266-5.317-10.001-3.531-3.737 1.787-5.318 6.265-3.531 10.001 4.144 8.665 13.08 14.265 22.766 14.265z"/></g></g></svg>