<svg id="Capa_1" enable-background="new 0 0 512 512" height="512" viewBox="0 0 512 512" width="512" xmlns="http://www.w3.org/2000/svg"><g><g><circle cx="256" cy="256" fill="#18c08b" r="220.821"/><g fill="#70dcba"><path d="m256 35.179v190.821c-16.568 0-30 13.431-30 30s13.432 30 30 30 30-13.431 30-30h190.82c0-121.956-98.864-220.821-220.82-220.821z"/><circle cx="207.389" cy="175.519" r="15.852"/></g></g><g fill="#ea5b70"><circle cx="256" cy="115.107" r="15"/><circle cx="349.929" cy="256" r="15"/><circle cx="360.929" cy="162.071" r="15"/></g><g><path d="m256 67.5v-60c-137.243 0-248.5 111.257-248.5 248.5s111.257 248.5 248.5 248.5v-60c-103.939 0-188.5-84.561-188.5-188.5s84.561-188.5 188.5-188.5z" fill="#8288cb"/><path d="m256 7.5c-10.01 6.701-16.018 17.954-16.018 30s6.008 23.299 16.018 30c103.939 0 188.5 84.561 188.5 188.5s-84.561 188.5-188.5 188.5c-10.01 6.701-16.018 17.954-16.018 30s6.008 23.299 16.018 30c137.243 0 248.5-111.257 248.5-248.5s-111.257-248.5-248.5-248.5z" fill="#9ea2e3"/></g><g><path d="m256 0c-141.491 0-256 114.497-256 256 0 35.325 7.063 69.539 20.995 101.691 13.455 31.053 32.669 58.775 57.107 82.396 2.978 2.878 7.725 2.797 10.604-.18 2.879-2.979 2.798-7.727-.181-10.605-47.413-45.829-73.525-107.376-73.525-173.302 0-132.888 108.112-241 241-241s241 108.112 241 241-108.112 241-241 241c-52.996.001-103.272-16.867-145.396-48.781-3.301-2.501-8.005-1.854-10.508 1.448-2.501 3.302-1.853 8.006 1.449 10.507 44.752 33.906 98.162 51.827 154.455 51.826 141.491 0 256-114.497 256-256 0-141.491-114.497-256-256-256z"/><path d="m383.686 127.839c2.934 2.922 7.682 2.912 10.607-.02 2.923-2.935 2.914-7.684-.02-10.607-37.031-36.894-86.137-57.212-138.273-57.212-108.075 0-196 87.925-196 196s87.925 196 196 196 196-87.925 196-196c0-41.663-12.956-81.477-37.467-115.138-2.438-3.349-7.131-4.086-10.478-1.647-3.349 2.438-4.086 7.129-1.647 10.478 21.155 29.052 32.984 63.071 34.437 98.808h-32.66c-1.317-26.656-9.628-52.103-24.321-74.3 2.252-3.503 3.564-7.664 3.564-12.129 0-12.406-10.094-22.5-22.5-22.5-3.586 0-6.976.848-9.988 2.346-21.059-17.56-46.174-28.79-73.238-32.736-1.946-7.118-7.304-12.838-14.203-15.285v-18.732c45.334 1.845 87.77 20.376 120.187 52.674zm-127.686 309.161c-99.804 0-181-81.196-181-181 0-97.291 77.162-176.885 173.5-180.833v18.73c-6.899 2.447-12.258 8.168-14.203 15.287-72.183 10.571-126.69 72.637-126.69 146.816 0 82.076 66.305 148.393 148.393 148.393 79.776 0 144.341-62.543 148.207-140.893h32.625c-3.947 96.338-83.541 173.5-180.832 173.5zm115.139-173.5h18.039c-3.904 70.077-62.142 125.893-133.178 125.893-73.553 0-133.393-59.84-133.393-133.393 0-66.388 48.024-121.873 112.811-131.817 2.495 5.635 7.235 10.061 13.082 12.135v18.527c-8.537.62-16.89 2.307-24.961 5.032-4.093-4.224-9.818-6.857-16.15-6.857-12.406 0-22.5 10.094-22.5 22.5 0 2.456.401 4.819 1.132 7.033-20.055 19.106-31.449 45.551-31.449 73.448 0 55.928 45.501 101.429 101.429 101.429 47.936 0 88.87-33.396 99.036-79.521 7.495-1.748 13.562-7.248 16.102-14.409zm-115.139-30c12.406 0 22.5 10.094 22.5 22.5s-10.094 22.5-22.5 22.5-22.5-10.094-22.5-22.5 10.094-22.5 22.5-22.5zm-7.5-14.245c-17.096 3.484-30 18.635-30 36.745 0 20.678 16.822 37.5 37.5 37.5 18.11 0 33.261-12.904 36.745-30h35.974c1.974 5.565 6.078 10.13 11.328 12.708-9.18 38.738-43.529 66.22-84.047 66.22-47.657 0-86.429-38.771-86.429-86.429 0-23.263 9.3-45.339 25.71-61.531 3.499 2.243 7.652 3.55 12.107 3.55 13.034 0 23.523-11.148 22.415-24.393 6.068-1.927 12.318-3.176 18.697-3.721zm-48.611-43.736c0-4.136 3.364-7.5 7.5-7.5s7.5 3.364 7.5 7.5-3.364 7.5-7.5 7.5-7.5-3.365-7.5-7.5zm150.04 87.981c-4.136 0-7.5-3.364-7.5-7.5s3.364-7.5 7.5-7.5 7.5 3.364 7.5 7.5-3.365 7.5-7.5 7.5zm-21.21-15h-35.974c-2.99-14.672-14.573-26.255-29.245-29.245v-49.359c37.203 3.153 67.939 29.573 76.547 65.896-5.251 2.578-9.354 7.143-11.328 12.708zm-72.719-125.893c-4.136 0-7.5-3.365-7.5-7.5s3.364-7.5 7.5-7.5 7.5 3.364 7.5 7.5-3.364 7.5-7.5 7.5zm115.139 125.893c-2.54-7.161-8.607-12.661-16.103-14.408-9.636-43.723-46.797-75.909-91.536-79.221v-18.554c5.842-2.072 10.579-6.493 13.076-12.122 23.546 3.624 45.423 13.385 63.895 28.528-8.11 17.677 8.801 36.888 27.494 30.715 12.675 19.507 19.917 41.755 21.198 65.062zm-10.21-93.929c4.136 0 7.5 3.364 7.5 7.5s-3.364 7.5-7.5 7.5-7.5-3.364-7.5-7.5 3.364-7.5 7.5-7.5z"/><path d="m202.961 277.998c-4.143 0-7.5 3.357-7.5 7.5v10c0 4.143 3.357 7.5 7.5 7.5s7.5-3.357 7.5-7.5v-10c0-4.143-3.357-7.5-7.5-7.5z"/><path d="m307.858 302.998c4.143 0 7.5-3.357 7.5-7.5v-10c0-4.143-3.357-7.5-7.5-7.5s-7.5 3.357-7.5 7.5v10c0 4.143 3.358 7.5 7.5 7.5z"/><path d="m277.528 315.067c2.722-3.122 2.396-7.86-.728-10.581s-7.86-2.396-10.581.728c-5.724 6.568-15.9 6.563-21.62-.001-2.723-3.124-7.46-3.447-10.582-.727-3.123 2.722-3.447 7.46-.727 10.582 11.704 13.428 32.547 13.418 44.238-.001z"/></g></g></svg>