<svg id="Capa_1" enable-background="new 0 0 512 512" height="512" viewBox="0 0 512 512" width="512" xmlns="http://www.w3.org/2000/svg"><g><g><path d="m207.5 379.29v95.21h39.999c-.221 10.303 8.956 20.002 20.448 20.003 11.032-.001 20.004-8.976 20.005-20.003h19.996c-.001 12.277 11.136 22.152 24.091 19.6 8.702-1.714 15.921-9.659 15.911-19.6h20.003c.001 12.812 12.114 22.848 25.49 19.259 7.572-2.032 14.503-9.474 14.504-19.259h20.002c.001 11.019 8.97 19.994 19.994 20.003 11.066 0 20.008-8.95 20.008-20.003l16.011-16.011v-21.199c0-32.033-25.967-58-58-58z" fill="#9ea2e3"/><path d="m504.5 437.952c0-46.089-37.363-83.452-83.452-83.452h-213.548v36.5h213.549c25.889 0 46.951 21.062 46.951 46.951v36.5h1.849c19.304-.987 34.651-16.951 34.651-36.499z" fill="#d4d4ff"/></g><g><path d="m44.048 37.5c-20.185 0-36.548 16.363-36.548 36.548 0 46.089 37.363 83.452 83.452 83.452h263.548v-120z" fill="#9ea2e3"/><path d="m139.274 67.5h-64.46c-12.5 0-19.516 14.391-11.818 24.238 2.843 3.636 7.202 5.762 11.818 5.762h64.46c8.284 0 15-6.716 15-15s-6.716-15-15-15z" fill="#8288cb"/></g><g><g><path d="m460.536 51.404h-125.125l-200.85 200.851v218.341l56.904 30c27.084-6.297 52.122-20.05 72.101-40.029l197-197.001c28.13-28.13 43.934-66.283 43.934-106.065 0-41.438-16.802-78.949-43.964-106.097z" fill="#d6948c"/></g><path d="m147.5 394.5c0-39.782 15.804-77.935 43.934-106.066l197-197c19.979-19.979 45.017-33.732 72.101-40.029-27.141-27.128-64.629-43.905-106.035-43.905-39.782 0-77.935 15.803-106.066 43.934l-197 197c-28.131 28.131-43.934 66.284-43.934 106.066 0 82.843 67.157 150 150 150 11.527 0 22.915-1.335 33.964-3.904-27.162-27.147-43.964-64.659-43.964-106.096z" fill="#bd7669"/></g><g><g><g><g><ellipse cx="259.745" cy="139.745" fill="#ffdbe0" rx="23.377" ry="29.355" transform="matrix(.707 -.707 .707 .707 -22.737 224.599)"/></g><g><ellipse cx="372.255" cy="252.255" fill="#ffdbe0" rx="23.377" ry="29.355" transform="matrix(.707 -.707 .707 .707 -69.341 337.106)"/></g></g></g></g><g><path d="m293.058 141.233 8.485-8.485c2.929-2.93 2.929-7.678 0-10.607-2.93-2.928-7.678-2.928-10.607 0l-8.485 8.485c-2.929 2.93-2.929 7.678 0 10.607 2.93 2.929 7.677 2.928 10.607 0z"/><path d="m381.373 229.549 8.485-8.484c2.93-2.929 2.93-7.678.001-10.606s-7.678-2.93-10.606-.001l-8.485 8.484c-2.93 2.929-2.93 7.678-.001 10.606 2.929 2.929 7.677 2.93 10.606.001z"/><path d="m321.036 160.711c-4.138-.282-7.713 2.836-7.996 6.969-1.216 17.732 13.473 32.493 31.28 31.28 4.132-.283 7.252-3.863 6.969-7.996-.283-4.132-3.869-7.231-7.996-6.969-8.75.577-15.881-6.637-15.288-15.288.283-4.133-2.837-7.713-6.969-7.996z"/><path d="m139.273 60h-64.46c-18.659 0-29.288 21.572-17.726 36.358 2.559 3.272 7.275 3.832 10.528 1.288 3.263-2.552 3.84-7.265 1.288-10.528-3.831-4.903-.427-12.118 5.91-12.118h64.46c4.136 0 7.5 3.364 7.5 7.5 0 4.143 3.357 7.5 7.5 7.5s7.5-3.357 7.5-7.5c0-12.406-10.093-22.5-22.5-22.5z"/><path d="m485.234 384.094c-3.396 2.371-4.228 7.047-1.857 10.443 8.912 12.768 13.623 27.78 13.623 43.414 0 15.417-12 28.12-27.353 29h-1.647c-1.989 0-3.945.839-5.353 2.245-1.406 1.407-2.196 3.314-2.196 5.304 0 6.895-5.611 12.503-12.502 12.503-6.892-.006-12.499-5.614-12.5-12.504 0-4.142-3.358-7.499-7.5-7.499h-20.002c-4.142 0-7.499 3.357-7.5 7.498-.001 6.635-5.2 12.498-12.495 12.498-6.892 0-12.499-5.606-12.5-12.497 0-4.142-3.358-7.499-7.5-7.499h-20.003c-4.143 0-7.5 3.357-7.5 7.5 0 6.779-5.461 12.505-12.509 12.505-6.889 0-12.493-5.609-12.493-12.505 0-4.143-3.357-7.5-7.5-7.5h-19.996c-4.142 0-7.5 3.357-7.5 7.499-.001 6.895-5.61 12.503-12.504 12.504-6.156-.001-11.008-4.42-12.481-9.2 4.671-3.712 9.154-7.684 13.403-11.933l103.87-103.87h48.31c15.481 0 30.374 4.627 43.066 13.381 1.3.896 2.783 1.327 4.251 1.327 2.383 0 4.726-1.133 6.181-3.243 2.352-3.409 1.494-8.08-1.916-10.432-15.207-10.489-33.044-16.033-51.582-16.033h-33.31l78.131-78.131c29.747-29.748 46.13-69.3 46.13-111.369 0-86.046-69.544-157.5-157.5-157.5-33.702 0-65.783 10.523-92.508 30h-217.944c-24.288 0-44.048 19.76-44.048 44.048 0 50.151 40.801 90.952 90.952 90.952h33.309l-39.8 39.8c-2.929 2.93-2.929 7.678 0 10.607 2.93 2.927 7.678 2.929 10.607 0l158.67-158.67c26.914-26.915 62.699-41.737 100.762-41.737 79.543 0 142.5 64.607 142.5 142.5 0 38.063-14.822 73.848-41.737 100.762l-197.001 197.001c-27.106 27.105-63.536 41.737-100.762 41.737-78.575 0-142.5-63.925-142.5-142.5 0-38.063 14.822-73.848 41.737-100.762l17.118-17.118c2.929-2.93 2.929-7.678 0-10.607-2.929-2.927-7.677-2.929-10.607 0l-17.118 17.118c-29.747 29.748-46.13 69.3-46.13 111.369 0 86.846 70.654 157.5 157.5 157.5 30.256 0 59.984-8.752 85.454-25.203 4.64 8.919 14.219 15.206 24.993 15.206 12.565-.001 23.19-8.473 26.464-20.003h7.075c3.271 11.532 13.893 20.005 26.454 20.005 12.932 0 23.26-8.601 26.475-20.005h7.077c3.273 11.528 13.896 19.996 26.46 19.996 13.052 0 23.331-9.003 26.459-19.996h7.079c3.273 11.522 13.892 19.993 26.453 20.003 12.746 0 23.495-8.712 26.603-20.493 21.322-3.189 37.454-21.55 37.454-43.559 0-18.721-5.645-36.701-16.322-52-2.372-3.395-7.045-4.228-10.444-1.857zm-345.973-234.094h-48.309c-41.88 0-75.952-34.072-75.952-75.952 0-16.017 13.031-29.048 29.048-29.048h200.241c-.385.377-.776.748-1.158 1.13z"/></g></g></svg>